<?xml version="1.0" encoding="UTF-8" standalone="no"?><svg xmlns="http://www.w3.org/2000/svg" xmlns:xlink="http://www.w3.org/1999/xlink" viewBox="170 75 240 410" preserveAspectRatio="xMidYMid meet" width="4.8in" height="8.2in" version="1.1" preserveaspectratio="xMinYMin meet" x="170" y="75"><desc style="-webkit-tap-highlight-color: rgba(0, 0, 0, 0);">Created with LiveArt HTML5</desc><defs><link xmlns="http://www.w3.org/1999/xhtml" href="http://localhost:34589/_LiveArtJS/fonts/fonts.css" type="text/css" rel="stylesheet" /><g id="id491527769149037" xmlns:xml="http://www.w3.org/XML/1998/namespace" xml:space="preserve" xmlns:xlink="http://www.w3.org/1999/xlink" version="1.1" height="260px" y="0px" x="0px" width="400px" viewBox="0 0 400 260" baseProfile="basic"><path id="main_color" fill="#f67f00" d="M 195.578 106.489 c -8 -6.5 2.35 -7.01 2.25 -7.25 c -14.25 -35.5 -37.23 -51.17 -39 -52 c -5.46 -2.56 -8.101 -2.32 -7.13 -3.61 c 0.96 -1.29 7.27 2.75 8.13 3.36 c 25.25 18 39 52 39 52 s 1.75 1 2 0.25 c 10 -29.5 30 -45 36.75 -51.25 s 10.3 -6.86 1 0.25 c -28.75 22 -36.99 50.65 -36.5 50.75 c 11.5 2.5 0.5 8 1 7.5 c 3.02 -3.02 3 6 3 6 s 17 -35 83.499 -79.5 c 4.101 -2.74 147.5 -81 97.5 14.5 c -2.59 4.96 -20 25 -20 25 s 1.5 8.5 -4.5 15.5 c -1.029 1.2 -3.5 13 -9.5 19.5 c -1.689 1.84 -0.02 -1.58 0 0 c 0.5 30 -24.069 29.34 -22.5 29.5 c 9.5 1 10.86 13.33 11 13.5 c 5.5 6.5 3.5 8 5.5 11 c 10.801 16.189 -0.59 15.22 1 18 c 4 7 -0.84 9.891 0.5 12 c 3.5 5.5 -2.579 9.01 -2.5 10.5 c 0.5 8.5 -5.159 5.4 -5 9 c 0.5 11 -3.5 6.5 -6 10.5 c -7.5 12 -10.369 7.55 -11 9 c -3 7 -7.02 5.32 -8.5 7 c -3.5 4 -7 4 -8.5 5.5 c -7 7 -10.97 2.061 -12 2.5 c -15.999 7 -23.499 1.34 -25.999 1.5 c -7.5 0.5 -6.351 -0.66 -8.5 -2.5 c -31.5 -27 -50 -66 -53.5 -71 c -1.431 -2.04 -4.48 -13.71 -3.5 -11 c 2 5.5 1 54.5 -4.5 54.5 c -5.5 0 -6 -46 -2.5 -54.5 c 1.1 -2.67 -0.931 7.891 -3.54 11 c -5.46 6.5 -22.29 44 -54.2 71 c -2.17 1.84 -1.01 3 -8.61 2.5 c -2.52 -0.16 -10.13 5.5 -26.33 -1.5 c -1.04 -0.439 -5.069 4.5 -12.159 -2.5 c -1.521 -1.5 -5.061 -1.5 -8.61 -5.5 c -1.49 -1.68 -5.57 0 -8.61 -7 c -0.63 -1.45 -3.54 3 -11.14 -9 c -2.53 -4 -6.59 0.5 -6.08 -10.5 c 0.17 -3.6 -5.57 -0.5 -5.06 -9 c 0.09 -1.49 -6.08 -5 -2.54 -10.5 c 1.359 -2.109 -3.54 -5 0.51 -12 c 1.609 -2.78 -9.92 -1.811 1.01 -18 c 2.03 -3 0 -4.5 5.57 -11 c 0.149 -0.17 1.52 -12.5 11.149 -13.5 c 1.59 -0.16 -23.3 0.5 -22.79 -29.5 c 0.021 -1.58 1.71 1.84 0 0 c -6.08 -6.5 -8.58 -18.3 -9.63 -19.5 c -6.08 -7 -4.56 -15.5 -4.56 -15.5 s -17.63 -20.04 -20.25 -25 c -50.65 -95.5 94.609 -17.24 98.76 -14.5 c 67.36 44.5 83.78 79.5 83.78 79.5 s 0.359 -2.55 1 -4 C 194.887 107.049 195.807 106.679 195.578 106.489 Z" /><path id="dark" d="M 195.584 106.279 c -8 -6.5 2.34 -7.02 2.25 -7.25 c -14.25 -35.5 -37.23 -51.17 -39 -52 c -5.46 -2.56 -8.101 -2.32 -7.141 -3.61 s 7.28 2.75 8.141 3.36 c 25.25 18 39 52 39 52 s 1.75 1 2 0.25 c 10 -29.5 30 -45 36.75 -51.25 s 10.3 -6.86 1 0.25 c -28.75 22 -36.99 50.64 -36.5 50.75 c 11.5 2.5 0.5 8 1 7.5 c 3.02 -3.02 3 6 3 6 s 17 -35 83.499 -79.5 c 4.091 -2.74 147.5 -81 97.5 14.5 c -2.59 4.95 -20 25 -20 25 s 1.5 8.5 -4.5 15.5 c -1.029 1.2 -3.5 13 -9.5 19.5 c -1.689 1.84 -0.029 -1.58 0 0 c 0.5 30 -24.069 29.34 -22.5 29.5 c 9.5 1 10.851 13.33 11 13.5 c 5.5 6.5 3.5 8 5.5 11 c 10.79 16.19 -0.59 15.22 1 18 c 4 7 -0.84 9.89 0.5 12 c 3.5 5.5 -2.59 9 -2.5 10.5 c 0.5 8.5 -5.159 5.399 -5 9 c 0.5 11 -3.5 6.5 -6 10.5 c -7.5 12 -10.38 7.55 -11 9 c -3 7 -7.029 5.319 -8.5 7 c -3.5 4 -7 4 -8.5 5.5 c -7 7 -10.97 2.05 -12 2.5 c -15.999 7 -23.499 1.33 -25.999 1.5 c -7.5 0.5 -6.351 -0.66 -8.5 -2.5 c -31.5 -27 -50 -66 -53.5 -71 c -1.431 -2.05 -4.49 -13.71 -3.5 -11 c 2 5.5 1 54.5 -4.5 54.5 s -6 -46 -2.5 -54.5 c 1.1 -2.67 -0.931 7.88 -3.54 11 c -5.46 6.5 -22.29 44 -54.2 71 c -2.17 1.84 -1.01 3 -8.61 2.5 c -2.52 -0.17 -10.13 5.5 -26.33 -1.5 c -1.04 -0.45 -5.069 4.5 -12.16 -2.5 c -1.52 -1.5 -5.06 -1.5 -8.609 -5.5 c -1.49 -1.681 -5.57 0 -8.61 -7 c -0.63 -1.45 -3.55 3 -11.14 -9 c -2.54 -4 -6.59 0.5 -6.08 -10.5 c 0.17 -3.601 -5.57 -0.5 -5.07 -9 c 0.09 -1.5 -6.069 -5 -2.529 -10.5 c 1.359 -2.11 -3.54 -5 0.51 -12 c 1.609 -2.78 -9.92 -1.81 1.01 -18 c 2.03 -3 0 -4.5 5.57 -11 c 0.149 -0.17 1.52 -12.5 11.149 -13.5 c 1.59 -0.16 -23.3 0.5 -22.8 -29.5 c 0.03 -1.58 1.72 1.84 0 0 c -6.07 -6.5 -8.58 -18.3 -9.62 -19.5 c -6.08 -7 -4.56 -15.5 -4.56 -15.5 s -17.63 -20.05 -20.26 -25 c -50.641 -95.5 94.619 -17.24 98.77 -14.5 c 67.36 44.5 83.78 79.5 83.78 79.5 s 0.359 -2.55 1 -4 C 194.894 106.839 195.814 106.469 195.584 106.279 Z M 234.084 119.779 c 3.04 -0.1 9.229 3.05 13 2 c 25.43 -7.06 73.319 -0.56 76.499 0.5 c 12 4 20 -24.5 -5.5 -24.5 c -31.529 0 -25 -2 -45.999 -5 c -1.78 -0.25 -27.521 9.3 -51.5 23 C 217.084 117.779 219.084 120.279 234.084 119.779 Z M 215.084 114.779 c 2.54 0.28 15 -8.5 54 -24 c 2.369 -0.94 2.5 -6 23.499 -15.5 c 1.37 -0.62 -0.5 -4 14 -16 c 7.17 -5.93 -17.499 -5 -22.999 -4 s -19 12 -19 12 s 15.18 -12.07 10 -10.5 c -11.5 3.5 -41.5 36.5 -51.5 50.5 s 16.5 -24 23 -30 S 196.584 112.779 215.084 114.779 Z M 327.583 95.279 c 14.521 2.91 13 -18.5 5.5 -19.5 c -11.569 -1.54 -33.609 -0.82 -40 1.5 c -16.499 6 -20.829 12.03 -19.499 12.5 C 302.083 99.779 322.583 94.279 327.583 95.279 Z M 327.083 73.279 c 5.92 0.74 16 3 16.5 -5 c 0.25 -4.02 14 3 17 3.5 c 2.48 0.41 -10.5 -4.79 -15 -8 c -3.5 -2.5 -4.109 -5.36 -4.5 -5.5 c -32 -11.5 -45.5 15.5 -45.5 15.5 S 323.083 72.779 327.083 73.279 Z M 392.583 29.279 c -5 -8 -13.96 -5.54 -17 -9 c -14.5 -16.5 -48.08 4.66 -20.5 2.5 C 387.083 20.279 393.174 30.229 392.583 29.279 Z M 368.583 33.279 c 13.511 0 19.5 6 18.5 5 c -7 -7 -13 -5.5 -14.5 -7.5 c -8.92 -11.89 -35.5 0.5 -33.5 3.5 S 365.083 33.279 368.583 33.279 Z M 322.083 42.779 c -21 5 -12 12.5 -9.5 12 C 332.014 50.899 326.464 41.739 322.083 42.779 Z M 332.583 18.779 c -9.5 1 -10.14 18.31 -5.5 15 C 334.083 28.779 342.083 17.779 332.583 18.779 Z M 307.583 42.279 c 14 -5.5 3.5 -8 -1 -7.5 s -7.83 7.33 -6.5 10 C 303.083 50.779 304.873 43.349 307.583 42.279 Z M 351.583 87.779 c 4.5 -2.5 -1 -8.5 -5 -6 S 347.083 90.279 351.583 87.779 Z M 342.083 45.279 c 11.771 11.77 16.5 5.5 19 4.5 c 8.12 -3.25 17 5.5 15.5 4 c -7.279 -7.28 -12 -6 -13 -7.5 c -7.609 -11.42 -18.96 -4.18 -21.5 -4 c -7 0.5 -15.689 5.41 -12.5 4.5 C 333.083 45.779 340.583 43.779 342.083 45.279 Z M 375.583 10.779 c 7 -5 -2.22 -6.27 -4 -6 C 365.083 5.779 368.583 15.779 375.583 10.779 Z M 216.584 147.779 c 5.5 6.5 67 104 57.5 71.5 c -1.29 -4.42 3.5 13.5 9 3.5 c 1.54 -2.8 10.149 -3.091 -16.5 -47.5 c -1.5 -2.5 -22 -10.5 -42.5 -33 C 220.984 138.869 212.014 142.379 216.584 147.779 Z M 272.084 182.279 c 4.5 7 15.689 30.45 16.5 34 c 2.499 11 9.499 -1.5 10.999 -1 c 13.16 4.39 3.5 -7.5 2.5 -10.5 c -9.17 -27.5 -30.499 -25 -30.499 -25 S 267.584 175.279 272.084 182.279 Z M 245.584 222.778 c 12.64 17.97 17.5 11 20 9 c 7.699 -6.16 -41.28 -68.979 -44.5 -73 C 217.084 153.779 217.084 182.279 245.584 222.778 Z M 292.083 185.779 c 6.5 5 13.74 26.069 17.5 25.5 c 10 -1.5 4 -10 6.5 -8.5 s 7.5 -1.17 6 -4 c -12.5 -23.5 -32 -16 -32 -16 S 285.584 180.779 292.083 185.779 Z M 227.584 135.279 c -19.5 0 46.5 54 65.499 43.5 c 3.94 -2.181 -4.999 -3.5 -3.5 -15 c 0.28 -2.1 -13.499 -6 -13.499 -19 c 0 -4.24 -7.92 -6 -33 -6 C 238.584 138.779 247.993 135.279 227.584 135.279 Z M 299.583 180.279 c 18.271 2.03 22.61 16.18 25 14.5 c 28.5 -20 -22.729 -28.16 -32 -27 C 288.584 168.279 295.083 179.779 299.583 180.279 Z M 230.584 130.779 c 3.5 2.5 15.5 12.5 54 4 c 1.47 -0.32 -29 -0.5 -33 -1.5 S 228.214 129.089 230.584 130.779 Z M 297.083 165.279 c 37.5 9 27.601 2.739 29 2 c 8.5 -4.5 -0.79 -5.39 0.5 -7 c 4.21 -5.26 -7 -8.5 -30.5 -11 c -5.56 -0.59 -16.579 -3.35 -16.999 -2.5 C 275.584 153.779 292.293 164.129 297.083 165.279 Z M 303.083 148.779 c 32.5 5.5 12.11 -4.69 12.5 -5 c 11.5 -9 -26.499 -9 -26.499 -9 s -16.33 3.88 -16 4.5 C 277.584 147.779 299.114 148.109 303.083 148.779 Z M 241.584 220.278 c 0 0 -29 -46.5 -23 -65.5 c 1.21 -3.81 -13 -22.5 -6.5 9 c 0.1 0.49 -1.23 -6.69 -3.5 -10 c -2.271 -3.31 -5.44 -2.22 -3.5 7.5 C 209.974 185.708 241.584 220.278 241.584 220.278 Z M 281.084 50.279 c 7.5 -2 4 -4.5 -0.5 -5.5 S 273.584 52.279 281.084 50.279 Z M 179.364 115.779 c -24.279 -13.7 -50.359 -23.25 -52.17 -23 c -21.27 3 -14.649 5 -46.59 5 c -25.83 0 -17.729 28.5 -5.57 24.5 c 3.221 -1.06 51.73 -7.56 77.49 -0.5 c 3.811 1.05 10.09 -2.1 13.17 -2 C 180.884 120.279 182.914 117.779 179.364 115.779 Z M 153.533 77.279 c 6.58 6 33.431 44 23.301 30 s -40.521 -47 -52.17 -50.5 c -5.24 -1.57 10.13 10.5 10.13 10.5 s -13.67 -11 -19.25 -12 c -5.57 -1 -30.551 -1.93 -23.29 4 c 14.68 12 12.79 15.38 14.18 16 c 21.271 9.5 21.4 14.56 23.8 15.5 c 39.51 15.5 52.13 24.28 54.7 24 C 203.674 112.779 146.954 71.279 153.533 77.279 Z M 125.674 89.779 c 1.359 -0.47 -3.03 -6.5 -19.75 -12.5 c -6.47 -2.32 -28.8 -3.04 -40.521 -1.5 c -7.59 1 -9.13 22.41 5.57 19.5 C 76.044 94.279 96.804 99.779 125.674 89.779 Z M 103.394 73.779 c 0 0 -13.68 -27 -46.09 -15.5 c -0.39 0.14 -1.01 3 -4.561 5.5 c -4.55 3.21 -17.699 8.41 -15.189 8 c 3.04 -0.5 16.96 -7.52 17.22 -3.5 c 0.5 8 10.72 5.74 16.71 5 C 75.533 72.779 103.394 73.779 103.394 73.779 Z M 43.124 22.779 c 27.93 2.16 -6.08 -19 -20.771 -2.5 c -3.08 3.46 -12.149 1 -17.22 9 C 4.533 30.229 10.704 20.279 43.124 22.779 Z M 59.334 34.279 c 2.02 -3 -24.9 -15.39 -33.94 -3.5 c -1.52 2 -7.6 0.5 -14.689 7.5 c -1.011 1 5.06 -5 18.739 -5 C 32.993 33.279 57.304 37.279 59.334 34.279 Z M 76.554 42.779 c 21.27 5 12.15 12.5 9.62 12 C 66.493 50.899 72.114 41.739 76.554 42.779 Z M 71.484 33.779 c 4.7 3.31 4.05 -14 -5.569 -15 C 56.294 17.779 64.394 28.779 71.484 33.779 Z M 98.834 44.779 c 1.35 -2.67 -2.03 -9.5 -6.58 -10 c -4.561 -0.5 -15.2 2 -1.021 7.5 C 93.984 43.349 95.794 50.779 98.834 44.779 Z M 51.734 81.779 c -4.05 -2.5 -9.63 3.5 -5.069 6 C 51.224 90.279 55.783 84.279 51.734 81.779 Z M 68.954 46.779 c 3.229 0.91 -5.57 -4 -12.66 -4.5 c -2.58 -0.18 -14.07 -7.42 -21.78 4 c -1.021 1.5 -5.8 0.22 -13.17 7.5 c -1.521 1.5 7.47 -7.25 15.7 -4 c 2.529 1 7.33 7.27 19.25 -4.5 C 57.814 43.779 65.404 45.779 68.954 46.779 Z M 26.404 4.779 c -1.8 -0.27 -11.14 1 -4.05 6 S 32.993 5.779 26.404 4.779 Z M 175.823 142.279 c -20.77 22.5 -41.54 30.5 -43.06 33 c -26.99 44.409 -18.271 44.7 -16.71 47.5 c 5.57 10 10.43 -7.92 9.12 -3.5 c -9.63 32.5 52.67 -65 58.24 -71.5 C 188.044 142.379 178.964 138.869 175.823 142.279 Z M 127.704 179.779 c 0 0 -21.61 -2.5 -30.9 25 c -1.01 3 -10.79 14.89 2.54 10.5 c 1.52 -0.5 8.61 12 11.14 1 c 0.82 -3.55 12.16 -27 16.71 -34 C 131.754 175.279 127.704 179.779 127.704 179.779 Z M 178.854 158.779 c -3.25 4.02 -52.87 66.839 -45.07 73 c 2.53 2 7.45 8.97 20.261 -9 C 182.914 182.279 182.914 153.779 178.854 158.779 Z M 108.964 182.779 c 0 0 -19.75 -7.5 -32.41 16 c -1.53 2.83 3.54 5.5 6.07 4 c 2.54 -1.5 -3.54 7 6.59 8.5 c 3.81 0.569 11.14 -20.5 17.72 -25.5 C 113.524 180.779 108.964 182.779 108.964 182.779 Z M 156.573 138.779 c -25.409 0 -33.43 1.76 -33.43 6 c 0 13 -13.95 16.9 -13.67 19 c 1.52 11.5 -7.54 12.819 -3.55 15 c 19.25 10.5 86.1 -43.5 66.35 -43.5 C 151.604 135.279 161.134 138.779 156.573 138.779 Z M 106.434 167.779 c -9.39 -1.16 -61.29 7 -32.42 27 c 2.42 1.68 6.82 -12.47 25.33 -14.5 C 103.904 179.779 110.484 168.279 106.434 167.779 Z M 147.964 133.279 c -4.05 1 -34.91 1.18 -33.431 1.5 c 39 8.5 51.16 -1.5 54.7 -4 C 171.634 129.089 152.014 132.279 147.964 133.279 Z M 120.104 146.779 c -0.43 -0.85 -11.59 1.91 -17.22 2.5 c -23.8 2.5 -35.16 5.74 -30.891 11 c 1.301 1.61 -8.109 2.5 0.5 7 c 1.421 0.739 -8.609 7 29.381 -2 C 106.724 164.129 123.654 153.779 120.104 146.779 Z M 126.184 139.279 c 0.34 -0.62 -16.21 -4.5 -16.21 -4.5 s -38.49 0 -26.84 9 c 0.399 0.31 -20.26 10.5 12.66 5 C 99.823 148.109 121.624 147.779 126.184 139.279 Z M 195.064 161.279 c 1.97 -9.72 -1.25 -10.81 -3.54 -7.5 c -2.3 3.31 -3.649 10.49 -3.55 10 c 6.59 -31.5 -7.8 -12.81 -6.58 -9 c 6.07 19 -23.3 65.5 -23.3 65.5 S 190.114 185.708 195.064 161.279 Z M 118.584 44.779 c -4.561 1 -8.101 3.5 -0.5 5.5 C 125.674 52.279 123.144 43.779 118.584 44.779 Z" /><path id="glare" fill="#fff6e3" d="M 355.694 52.389 c -4.46 0.56 -8.5 1 -9.5 -4.5 s 1.5 -7.5 9 -5.5 S 367.694 50.889 355.694 52.389 Z M 319.194 55.889 c 0 0 -18.72 4.42 -1.5 -8.5 c 8 -6 8.5 -1 9 2 C 327.444 53.859 319.194 55.889 319.194 55.889 Z M 376.194 15.389 c -8.35 -1.67 -8 -6.5 1 -8.5 C 378.663 6.569 381.194 16.389 376.194 15.389 Z M 381.194 15.389 c 2.5 -0.5 6.5 0.5 7 4 s -3.5 5.5 -6 3.5 S 378.694 15.889 381.194 15.389 Z M 375.194 26.389 c 2.5 -1 10 0.5 9.5 3.5 s -6.5 3.5 -9 2 S 372.694 27.389 375.194 26.389 Z M 376.194 43.889 c 3 -2.5 6.5 0 7.5 1.5 s -4 3.5 -5.5 4 S 373.194 46.389 376.194 43.889 Z M 387.694 6.889 c 0 0 4 0 3 1.5 s -4 1.5 -4 1.5 L 387.694 6.889 Z M 393.694 15.889 c 0 0 4 0 3 1.5 s -4 1.5 -4 1.5 L 393.694 15.889 Z M 361.194 63.889 c 0 0 5 2 4 3.5 s -2.5 4 -6 0.5 S 361.194 63.889 361.194 63.889 Z M 347.694 83.389 c 3 -2.5 6.5 0 7.5 1.5 s -4 3.5 -5.5 4 S 344.694 85.889 347.694 83.389 Z M 349.694 73.389 c 3 -2.5 5.5 1 6.5 2.5 s -3 2.5 -4.5 3 S 346.694 75.889 349.694 73.389 Z M 332.694 39.889 c -3.57 0.2 -9.5 -1.5 -0.5 -7.5 c 8.32 -5.54 8 -4 8.5 -1 C 341.444 35.859 336.264 39.699 332.694 39.889 Z M 302.194 48.889 c 0 0 -3.5 -3 3.5 -9 c 7.6 -6.5 6.5 -4 7 -1 C 313.444 43.359 302.194 48.889 302.194 48.889 Z M 333.194 22.389 c 0 0 6 -1 5 0.5 s -3.5 7 -7 3.5 S 333.194 22.389 333.194 22.389 Z M 366.694 52.889 c 1.38 0 2.5 1.13 2.5 2.5 c 0 1.38 -1.12 2.5 -2.5 2.5 c -1.37 0 -2.5 -1.12 -2.5 -2.5 C 364.194 54.019 365.323 52.889 366.694 52.889 Z M 361.694 77.389 c 1.38 0 2.5 1.13 2.5 2.5 c 0 1.38 -1.12 2.5 -2.5 2.5 c -1.37 0 -2.5 -1.12 -2.5 -2.5 C 359.194 78.519 360.323 77.389 361.694 77.389 Z M 357.694 87.389 c 1.38 0 2.5 1.13 2.5 2.5 c 0 1.38 -1.12 2.5 -2.5 2.5 c -1.37 0 -2.5 -1.12 -2.5 -2.5 C 355.194 88.519 356.323 87.389 357.694 87.389 Z M 341.694 93.889 c 1.38 0 2.5 1.13 2.5 2.5 c 0 1.38 -1.12 2.5 -2.5 2.5 c -1.37 0 -2.5 -1.12 -2.5 -2.5 C 339.194 95.019 340.323 93.889 341.694 93.889 Z M 350.194 95.389 c 1.38 0 4 2.13 4 3.5 c 0 1.38 -2.62 1.5 -4 1.5 c -1.37 0 -2.5 -1.12 -2.5 -2.5 C 347.694 96.519 348.823 95.389 350.194 95.389 Z M 374.194 56.389 c 1.38 0 2.5 1.13 2.5 2.5 c 0 1.38 -1.12 2.5 -2.5 2.5 c -1.37 0 -2.5 -1.12 -2.5 -2.5 C 371.694 57.519 372.823 56.389 374.194 56.389 Z M 387.694 32.889 c 1.38 0 2.5 1.13 2.5 2.5 c 0 1.38 -1.12 2.5 -2.5 2.5 c -1.37 0 -2.5 -1.12 -2.5 -2.5 C 385.194 34.019 386.323 32.889 387.694 32.889 Z M 292.694 40.889 c 2.32 0.93 13.5 -6.5 10 -7.5 S 290.194 39.889 292.694 40.889 Z M 311.694 27.889 c 2.5 0.5 10 -2.5 6.5 -3.5 S 309.054 27.369 311.694 27.889 Z M 263.694 58.389 c 5.5 -3 21 -10.5 13.5 -9.5 S 258.974 60.969 263.694 58.389 Z M 356.194 8.889 c 2.5 0.5 10 -2.5 6.5 -3.5 S 353.554 8.369 356.194 8.889 Z M 284.194 45.389 c 2.5 0.5 7.5 -2 4 -3 S 281.554 44.869 284.194 45.389 Z M 347.194 107.889 c 1.38 0 2.5 1.63 2.5 3 c 0 1.38 -0.62 1.5 -2 1.5 c -1.37 0 -2.5 -1.12 -2.5 -2.5 C 345.194 108.519 345.823 107.889 347.194 107.889 Z M 339.694 107.389 c 1.38 0 3.5 0.63 3.5 2 c 0 1.38 -2.62 1 -4 1 c -1.37 0 -2.5 -1.12 -2.5 -2.5 C 336.694 106.519 338.323 107.389 339.694 107.389 Z M 341.694 121.889 c 1.38 0 4 2.13 4 3.5 c 0 1.38 -2.62 1.5 -4 1.5 c -1.37 0 -2.5 -1.12 -2.5 -2.5 C 339.194 123.019 340.323 121.889 341.694 121.889 Z M 329.694 142.389 c 4 -1 4 1 5 4.5 s 8.07 14.88 -3.5 1 C 328.694 144.889 325.694 143.389 329.694 142.389 Z M 341.694 154.389 c 1.38 0 2.5 1.13 2.5 2.5 c 0 1.38 -1.12 2.5 -2.5 2.5 c -1.37 0 -2.5 -1.12 -2.5 -2.5 C 339.194 155.519 340.323 154.389 341.694 154.389 Z M 344.194 163.389 c 1.38 0 2.5 1.13 2.5 2.5 c 0 1.379 -1.12 2.5 -2.5 2.5 c -1.37 0 -2.5 -1.121 -2.5 -2.5 C 341.694 164.519 342.823 163.389 344.194 163.389 Z M 344.364 172.389 c 1.37 0 3.33 3.129 3.33 4.5 c 0 1.379 -1.12 2.5 -2.5 2.5 c -1.37 0 -4.16 -1.621 -4.16 -3 C 341.033 175.018 342.984 172.389 344.364 172.389 Z M 345.694 188.389 c 1.38 0 1 0.129 1 1.5 c 0 1.379 -0.12 0.5 -1.5 0.5 c -1.37 0 -1 0.879 -1 -0.5 C 344.194 188.518 344.323 188.389 345.694 188.389 Z M 332.194 155.389 c 1.38 0 1 0.13 1 1.5 c 0 1.38 -0.12 0.5 -1.5 0.5 c -1.37 0 -1 0.88 -1 -0.5 C 330.694 155.519 330.823 155.389 332.194 155.389 Z M 335.194 167.889 c 1.38 0 1 0.129 1 1.5 c 0 1.379 0.21 5 -1.16 5 c -1.38 0 -1.34 -3.621 -1.34 -5 C 333.694 168.018 333.823 167.889 335.194 167.889 Z M 338.694 181.889 c 1.38 0 1 0.129 1 1.5 c 0 1.379 -0.12 0.5 -1.5 0.5 c -1.37 0 -1 0.879 -1 -0.5 C 337.194 182.018 337.323 181.889 338.694 181.889 Z M 332.533 195.389 c 1.37 0 1.16 0.129 1.16 1.5 c 0 1.379 -0.29 0.5 -1.66 0.5 c -1.38 0 -0.84 0.879 -0.84 -0.5 C 331.194 195.518 331.154 195.389 332.533 195.389 Z M 341.364 198.729 c 1.37 0 2.67 1.949 2.67 3.33 c 0 1.369 -2.96 3.83 -4.34 3.83 c -1.37 0 -1 0.879 -1 -0.5 C 338.694 204.018 339.984 198.729 341.364 198.729 Z M 335.694 213.059 c 1.38 0 3.67 -0.381 3.67 1 c 0 1.369 -3.29 3.83 -4.67 3.83 c -1.37 0 -1 0.879 -1 -0.5 C 333.694 216.018 334.323 213.059 335.694 213.059 Z M 327.194 205.889 c 1.38 0 1 0.129 1 1.5 c 0 1.379 -0.12 0.5 -1.5 0.5 c -1.37 0 -1 0.879 -1 -0.5 C 325.694 206.018 325.823 205.889 327.194 205.889 Z M 324.694 225.059 c 1.38 0 2.67 1.619 2.67 3 c 0 1.369 -2.29 0.83 -3.67 0.83 c -1.37 0 -1 0.879 -1 -0.5 C 322.694 227.018 323.323 225.059 324.694 225.059 Z M 316.364 230.389 c 1.37 0 0.67 1.629 0.67 3 c 0 1.379 -4.96 4.5 -6.34 4.5 c -1.37 0 -1 0.879 -1 -0.5 C 309.694 236.018 314.984 230.389 316.364 230.389 Z M 317.194 214.389 c 1.38 0 1 0.129 1 1.5 c 0 1.379 -0.12 0.5 -1.5 0.5 c -1.37 0 -1 0.879 -1 -0.5 C 315.694 214.518 315.823 214.389 317.194 214.389 Z M 305.194 222.889 c 1.38 0 5.84 1.789 5.84 3.17 c 0 1.369 -5.63 3.67 -7 3.67 c -1.38 0 -2.34 -2.301 -2.34 -3.67 C 301.694 224.678 303.823 222.889 305.194 222.889 Z M 292.194 227.389 c 1.38 0 1 0.129 1 1.5 c 0 1.379 -0.12 0.5 -1.5 0.5 c -1.37 0 -1 0.879 -1 -0.5 C 290.694 227.518 290.823 227.389 292.194 227.389 Z M 300.194 239.389 c 1.38 0 1 0.129 1 1.5 c 0 1.379 -0.12 0.5 -1.5 0.5 c -1.37 0 -1 0.879 -1 -0.5 C 298.694 239.518 298.823 239.389 300.194 239.389 Z M 297.194 240.389 c 1.38 0 1 0.129 1 1.5 c 0 1.379 -0.12 0.5 -1.5 0.5 c -1.37 0 -1 0.879 -1 -0.5 C 295.694 240.518 295.823 240.389 297.194 240.389 Z M 285.694 240.729 c 0.92 0 2 1.41 2 2.33 s -0.08 0.33 -1 0.33 c -0.91 0 -3.33 1.25 -3.33 0.34 C 283.364 242.809 284.783 240.729 285.694 240.729 Z M 288.694 243.389 c 0.92 0 0.67 0.09 0.67 1 c 0 0.92 -0.08 0.34 -1 0.34 s -0.67 0.58 -0.67 -0.34 C 287.694 243.479 287.783 243.389 288.694 243.389 Z M 283.364 230.389 c 0.92 0 2.33 3.42 2.33 4.34 c 0 0.91 -3.08 0.66 -4 0.66 c -0.91 0 -2.33 -2.75 -2.33 -3.66 C 279.364 230.809 282.444 230.389 283.364 230.389 Z M 272.033 241.389 c 1.37 0 1.16 0.129 1.16 1.5 c 0 1.379 -0.29 0.5 -1.66 0.5 c -1.38 0 -0.84 0.879 -0.84 -0.5 C 270.694 241.518 270.654 241.389 272.033 241.389 Z M 269.033 234.389 c 1.37 0 -0.67 3.289 -0.67 4.67 c 0 1.369 -4.46 1.83 -5.83 1.83 c -1.38 0 1.16 -1.791 1.16 -3.16 C 263.694 236.348 267.654 234.389 269.033 234.389 Z M 44.194 51.559 c 4.471 0.56 8.5 1 9.5 -4.5 s -1.5 -7.5 -9 -5.5 S 32.194 50.059 44.194 51.559 Z M 80.694 55.059 c 0 0 18.721 4.41 1.5 -8.5 c -8 -6 -8.5 -1 -9 2 C 72.454 53.029 80.694 55.059 80.694 55.059 Z M 23.694 14.559 c 8.351 -1.67 8 -6.5 -1 -8.5 C 21.234 5.729 18.694 15.559 23.694 14.559 Z M 18.694 14.559 c -2.5 -0.5 -6.5 0.5 -7 4 s 3.5 5.5 6 3.5 S 21.194 15.059 18.694 14.559 Z M 24.694 25.559 c -2.5 -1 -10 0.5 -9.5 3.5 s 6.5 3.5 9 2 S 27.194 26.559 24.694 25.559 Z M 23.694 43.059 c -3 -2.5 -6.5 0 -7.5 1.5 s 4 3.5 5.5 4 S 26.694 45.559 23.694 43.059 Z M 12.194 6.059 c 0 0 -4 0 -3 1.5 s 4 1.5 4 1.5 L 12.194 6.059 Z M 6.194 15.059 c 0 0 -4 0 -3 1.5 s 4 1.5 4 1.5 L 6.194 15.059 Z M 38.694 63.059 c 0 0 -5 2 -4 3.5 s 2.5 4 6 0.5 S 38.694 63.059 38.694 63.059 Z M 52.194 82.559 c -3 -2.5 -6.5 0 -7.5 1.5 s 4 3.5 5.5 4 S 55.194 85.059 52.194 82.559 Z M 50.194 72.559 c -3 -2.5 -5.5 1 -6.5 2.5 s 3 2.5 4.5 3 S 53.194 75.059 50.194 72.559 Z M 67.194 39.059 c 3.57 0.2 9.5 -1.5 0.5 -7.5 c -8.319 -5.55 -8 -4 -8.5 -1 C 58.454 35.029 63.624 38.859 67.194 39.059 Z M 97.694 48.059 c 0 0 3.5 -3 -3.5 -9 c -7.59 -6.51 -6.5 -4 -7 -1 C 86.454 42.529 97.694 48.059 97.694 48.059 Z M 66.694 21.559 c 0 0 -6 -1 -5 0.5 s 3.5 7 7 3.5 S 66.694 21.559 66.694 21.559 Z M 33.194 52.059 c -1.37 0 -2.5 1.13 -2.5 2.5 c 0 1.38 1.13 2.5 2.5 2.5 c 1.38 0 2.5 -1.12 2.5 -2.5 C 35.694 53.189 34.573 52.059 33.194 52.059 Z M 38.194 76.559 c -1.37 0 -2.5 1.13 -2.5 2.5 c 0 1.38 1.13 2.5 2.5 2.5 c 1.38 0 2.5 -1.12 2.5 -2.5 C 40.694 77.688 39.573 76.559 38.194 76.559 Z M 42.194 86.559 c -1.37 0 -2.5 1.13 -2.5 2.5 c 0 1.38 1.13 2.5 2.5 2.5 c 1.38 0 2.5 -1.12 2.5 -2.5 C 44.694 87.688 43.573 86.559 42.194 86.559 Z M 58.194 93.059 c -1.37 0 -2.5 1.13 -2.5 2.5 c 0 1.38 1.13 2.5 2.5 2.5 c 1.38 0 2.5 -1.12 2.5 -2.5 C 60.694 94.188 59.573 93.059 58.194 93.059 Z M 49.694 94.559 c -1.37 0 -4 2.13 -4 3.5 c 0 1.38 2.63 1.5 4 1.5 c 1.38 0 2.5 -1.12 2.5 -2.5 C 52.194 95.688 51.073 94.559 49.694 94.559 Z M 25.694 55.559 c -1.37 0 -2.5 1.13 -2.5 2.5 c 0 1.38 1.13 2.5 2.5 2.5 c 1.38 0 2.5 -1.12 2.5 -2.5 C 28.194 56.689 27.073 55.559 25.694 55.559 Z M 12.194 32.059 c -1.37 0 -2.5 1.13 -2.5 2.5 c 0 1.38 1.13 2.5 2.5 2.5 c 1.38 0 2.5 -1.12 2.5 -2.5 C 14.694 33.189 13.573 32.059 12.194 32.059 Z M 107.194 40.059 c -2.319 0.93 -13.5 -6.5 -10 -7.5 S 109.694 39.059 107.194 40.059 Z M 88.194 27.059 c -2.5 0.5 -10 -2.5 -6.5 -3.5 S 90.834 26.529 88.194 27.059 Z M 136.194 57.559 c -5.5 -3 -21 -10.5 -13.5 -9.5 S 140.924 60.139 136.194 57.559 Z M 43.694 8.059 c -2.5 0.5 -10 -2.5 -6.5 -3.5 S 46.334 7.529 43.694 8.059 Z M 115.694 44.559 c -2.5 0.5 -7.5 -2 -4 -3 S 118.334 44.029 115.694 44.559 Z M 52.694 107.059 c -1.37 0 -2.5 1.63 -2.5 3 c 0 1.38 0.63 1.5 2 1.5 c 1.38 0 2.5 -1.12 2.5 -2.5 C 54.694 107.688 54.073 107.059 52.694 107.059 Z M 60.194 106.559 c -1.37 0 -3.5 0.63 -3.5 2 c 0 1.38 2.63 1 4 1 c 1.38 0 2.5 -1.12 2.5 -2.5 C 63.194 105.688 61.573 106.559 60.194 106.559 Z M 58.194 121.059 c -1.37 0 -4 2.13 -4 3.5 c 0 1.38 2.63 1.5 4 1.5 c 1.38 0 2.5 -1.12 2.5 -2.5 C 60.694 122.188 59.573 121.059 58.194 121.059 Z M 70.194 141.559 c -4 -1 -4 1 -5 4.5 s -8.06 14.88 3.5 1 C 71.194 144.059 74.194 142.559 70.194 141.559 Z M 58.194 153.559 c -1.37 0 -2.5 1.12 -2.5 2.5 c 0 1.37 1.13 2.5 2.5 2.5 c 1.38 0 2.5 -1.13 2.5 -2.5 C 60.694 154.679 59.573 153.559 58.194 153.559 Z M 55.694 162.559 c -1.37 0 -2.5 1.12 -2.5 2.5 c 0 1.37 1.13 2.5 2.5 2.5 c 1.38 0 2.5 -1.13 2.5 -2.5 C 58.194 163.679 57.073 162.559 55.694 162.559 Z M 55.533 171.559 c -1.38 0 -3.34 3.119 -3.34 4.5 c 0 1.369 1.13 2.5 2.5 2.5 c 1.38 0 4.17 -1.631 4.17 -3 C 58.864 174.178 56.904 171.559 55.533 171.559 Z M 54.194 187.559 c -1.37 0 -1 0.119 -1 1.5 c 0 1.369 0.13 0.5 1.5 0.5 c 1.38 0 1 0.869 1 -0.5 C 55.694 187.678 55.573 187.559 54.194 187.559 Z M 67.694 154.559 c -1.37 0 -1 0.12 -1 1.5 c 0 1.37 0.13 0.5 1.5 0.5 c 1.38 0 1 0.87 1 -0.5 C 69.194 154.679 69.073 154.559 67.694 154.559 Z M 64.694 167.059 c -1.37 0 -1 0.12 -1 1.5 c 0 1.369 -0.2 5 1.17 5 c 1.38 0 1.33 -3.631 1.33 -5 C 66.194 167.178 66.073 167.059 64.694 167.059 Z M 61.194 181.059 c -1.37 0 -1 0.119 -1 1.5 c 0 1.369 0.13 0.5 1.5 0.5 c 1.38 0 1 0.869 1 -0.5 C 62.694 181.178 62.573 181.059 61.194 181.059 Z M 67.364 194.559 c -1.37 0 -1.17 0.119 -1.17 1.5 c 0 1.369 0.3 0.5 1.67 0.5 c 1.38 0 0.83 0.869 0.83 -0.5 C 68.694 194.678 68.743 194.559 67.364 194.559 Z M 58.533 197.889 c -1.38 0 -2.67 1.959 -2.67 3.339 c 0 1.369 2.96 3.83 4.33 3.83 c 1.38 0 1 0.869 1 -0.5 C 61.194 203.178 59.904 197.889 58.533 197.889 Z M 64.194 212.229 c -1.37 0 -3.66 -0.381 -3.66 1 c 0 1.369 3.29 3.83 4.66 3.83 c 1.38 0 1 0.869 1 -0.5 C 66.194 215.178 65.573 212.229 64.194 212.229 Z M 72.694 205.059 c -1.37 0 -1 0.119 -1 1.5 c 0 1.369 0.13 0.5 1.5 0.5 c 1.38 0 1 0.869 1 -0.5 C 74.194 205.178 74.073 205.059 72.694 205.059 Z M 75.194 224.229 c -1.37 0 -2.66 1.619 -2.66 3 c 0 1.369 2.29 0.83 3.66 0.83 c 1.38 0 1 0.869 1 -0.5 C 77.194 226.178 76.573 224.229 75.194 224.229 Z M 83.533 229.559 c -1.38 0 -0.67 1.619 -0.67 3 c 0 1.369 4.96 4.5 6.33 4.5 c 1.38 0 1 0.869 1 -0.5 C 90.194 235.178 84.904 229.559 83.533 229.559 Z M 82.694 213.559 c -1.37 0 -1 0.119 -1 1.5 c 0 1.369 0.13 0.5 1.5 0.5 c 1.38 0 1 0.869 1 -0.5 C 84.194 213.678 84.073 213.559 82.694 213.559 Z M 94.694 222.059 c -1.37 0 -5.83 1.789 -5.83 3.17 c 0 1.369 5.63 3.66 7 3.66 c 1.38 0 2.33 -2.291 2.33 -3.66 C 98.194 223.848 96.073 222.059 94.694 222.059 Z M 107.694 226.559 c -1.37 0 -1 0.119 -1 1.5 c 0 1.369 0.13 0.5 1.5 0.5 c 1.38 0 1 0.869 1 -0.5 C 109.194 226.678 109.073 226.559 107.694 226.559 Z M 99.694 238.559 c -1.37 0 -1 0.119 -1 1.5 c 0 1.369 0.13 0.5 1.5 0.5 c 1.38 0 1 0.869 1 -0.5 C 101.194 238.678 101.073 238.559 99.694 238.559 Z M 102.694 239.559 c -1.37 0 -1 0.119 -1 1.5 c 0 1.369 0.13 0.5 1.5 0.5 c 1.38 0 1 0.869 1 -0.5 C 104.194 239.678 104.073 239.559 102.694 239.559 Z M 114.194 239.889 c -0.91 0 -2 1.42 -2 2.34 c 0 0.91 0.09 0.33 1 0.33 c 0.92 0 3.34 1.25 3.34 0.33 C 116.533 241.979 115.114 239.889 114.194 239.889 Z M 111.194 242.559 c -0.91 0 -0.66 0.08 -0.66 1 s 0.08 0.33 1 0.33 c 0.91 0 0.66 0.59 0.66 -0.33 S 112.114 242.559 111.194 242.559 Z M 116.533 229.559 c -0.92 0 -2.34 3.42 -2.34 4.33 c 0 0.92 3.09 0.67 4 0.67 c 0.92 0 2.34 -2.75 2.34 -3.67 C 120.533 229.979 117.444 229.559 116.533 229.559 Z M 127.864 240.559 c -1.37 0 -1.17 0.119 -1.17 1.5 c 0 1.369 0.3 0.5 1.67 0.5 c 1.38 0 0.83 0.869 0.83 -0.5 C 129.194 240.678 129.243 240.559 127.864 240.559 Z M 130.864 233.559 c -1.37 0 0.67 3.289 0.67 4.67 c 0 1.369 4.46 1.83 5.83 1.83 c 1.38 0 -1.17 -1.791 -1.17 -3.17 C 136.194 235.518 132.243 233.559 130.864 233.559 Z M 202.964 101.458 c -1.37 0 -1.17 0.13 -1.17 1.5 c 0 1.38 0.3 0.5 1.67 0.5 c 1.38 0 0.83 0.88 0.83 -0.5 C 204.294 101.589 204.344 101.458 202.964 101.458 Z M 197.464 101.458 c -1.37 0 -1.17 0.13 -1.17 1.5 c 0 1.38 0.3 0.5 1.67 0.5 c 1.38 0 0.83 0.88 0.83 -0.5 C 198.794 101.589 198.844 101.458 197.464 101.458 Z M 202.964 110.458 c -1.37 0 -1.17 0.13 -1.17 1.5 c 0 1.38 0.3 0.5 1.67 0.5 c 1.38 0 0.83 0.88 0.83 -0.5 C 204.294 110.589 204.344 110.458 202.964 110.458 Z M 196.864 110.359 c -1.37 0 -1.17 0.13 -1.17 1.5 c 0 1.38 0.3 0.5 1.67 0.5 c 1.38 0 0.83 0.88 0.83 -0.5 C 198.194 110.489 198.243 110.359 196.864 110.359 Z M 204.964 120.958 c -1.37 0 -1 1.13 -1 2.5 c 0 1.38 0.42 4.5 1.8 4.5 c 1.37 0 0.53 -4.12 0.53 -5.5 C 206.294 121.089 206.344 120.958 204.964 120.958 Z M 195.964 120.958 c -1.37 0 -1.4 1.23 -1.4 2.6 c 0 1.38 -0.97 4.6 0.4 4.6 c 1.38 0 1.8 -3.82 1.8 -5.2 C 196.764 121.589 197.344 120.958 195.964 120.958 Z" /></g><clipPath id="3DB2EA69-1E14-4870-BAA1-ED8D024FCA27" style="-webkit-tap-highlight-color: rgba(0, 0, 0, 0);"><rect style="-webkit-tap-highlight-color: rgba(0, 0, 0, 0);" transform="matrix(2.72992 0 0 2.72992 -597.136 -291.444)" x="170" y="75" width="240" height="410" /></clipPath><clipPath id="BBF5FB63-15B3-4378-B867-F5ECDF1DB93D" style="-webkit-tap-highlight-color: rgba(0, 0, 0, 0);"><rect style="-webkit-tap-highlight-color: rgba(0, 0, 0, 0);" transform="matrix(1 0 0 1 -289.995 -280)" x="170" y="75" width="240" height="410" /></clipPath><g id="id901527769136734" enable-background="new 0 0 587 543" xmlns:xml="http://www.w3.org/XML/1998/namespace" xml:space="preserve" xmlns:xlink="http://www.w3.org/1999/xlink" version="1.1" height="543px" y="0px" x="0px" width="587px" viewBox="0 0 587 543">
<style type="text/css">
	<![CDATA[
	 .bg {fill:#FFFFFF}
	]]>
</style>
<path class="bg" clip-rule="evenodd" fill-rule="evenodd" d="M 520.306 240.901 c 0.468 0.418 0.896 0.825 1.281 1.219 c 0.192 -0.167 0.38 -0.333 0.563 -0.5 c 0.209 -0.208 0.313 -0.521 0.313 -0.938 c 0.417 0 0.667 0.084 0.751 0.25 c 0.46 1.102 0.502 2.144 0.125 3.125 c 0.607 0.785 1.024 1.504 1.25 2.156 c 1.293 0.258 2.252 1.747 2.875 4.469 l -0.75 2.688 c -12.793 16.584 -32.502 27.168 -59.128 31.751 c -13.792 2.417 -21.751 -0.729 -23.876 -9.438 c -0.417 0 -0.667 -0.084 -0.75 -0.251 c -0.259 -0.516 -0.415 -1.078 -0.469 -1.687 c -2.641 -1.67 -4.089 -3.982 -4.344 -6.938 c -0.17 -1.7 0.079 -3.888 0.75 -6.563 c -2.655 -9.156 -4.489 -19.094 -5.5 -29.814 c -1.348 -0.782 -2.868 -1.386 -4.563 -1.812 c -0.021 3.758 -0.063 7.78 -0.126 12.063 c 0 0.417 0 0.833 0 1.25 c 1.459 6.875 1.667 14.772 0.625 23.689 c 0 0.042 -0.208 0.063 -0.625 0.063 c 0 4.167 0 8.333 0 12.5 c 0 0.417 0 0.833 0 1.25 s 0.021 0.833 0.063 1.25 c 0.584 8.958 0.146 16.876 -1.313 23.751 c 0 10.834 0 21.668 0 32.501 c 0 0.417 0 0.834 0 1.25 c 1.459 7.293 1.896 15.626 1.313 25.002 c -0.041 0.416 -0.063 0.833 -0.063 1.25 c 0 7.917 0 15.833 0 23.751 c 0 0.417 0 0.833 0 1.25 c 0 11.25 0 22.501 0 33.751 c 0 0.417 0 0.833 0 1.25 c 0.917 21.168 1.938 39.544 3.063 55.128 c 0.015 0.191 0.024 0.379 0.031 0.562 c 0.699 0.861 1.335 1.663 1.906 2.407 c 0.935 -0.11 1.538 0.744 1.813 2.563 c 0.813 1.273 1.344 2.314 1.594 3.125 c 0.107 -0.021 0.222 -0.031 0.344 -0.031 c 0 0.417 0.041 0.833 0.125 1.25 c 0.958 4.792 0.917 8.542 -0.125 11.251 c 0 0.416 -0.104 0.687 -0.313 0.812 c -27.71 18.21 -63.857 27.939 -108.442 29.189 c 0 0.417 -0.021 0.625 -0.063 0.625 c -7.459 0.417 -14.938 0.625 -22.438 0.625 c -0.417 0 -0.833 0 -1.25 0 c -15 0 -30.001 0 -45.002 0 c -0.417 0 -0.833 0.021 -1.25 0.063 c -7.292 0.583 -13.542 0.146 -18.751 -1.313 c -0.417 0 -0.833 0 -1.25 0 c -40.627 -0.625 -71.461 -11.042 -92.504 -31.251 c -0.417 0 -0.625 -0.021 -0.625 -0.063 c -0.329 -3.254 -0.527 -6.524 -0.594 -9.813 c -0.854 -1.374 -1.281 -2.729 -1.281 -4.063 c 0 -2.459 0.521 -4.646 1.563 -6.563 c 0.606 -1.136 1.366 -2.063 2.282 -2.781 c -0.488 -2.604 -0.52 -5.677 -0.094 -9.22 c 2 -7.584 2.833 -16.334 2.5 -26.251 c 0 -0.417 0 -0.833 0 -1.25 s 0 -0.833 0 -1.25 c 0 -13.334 0 -26.668 0 -40.002 c 0.417 0 0.833 0 1.25 0 c 0 -0.417 0 -0.833 0 -1.25 c 0 -5.833 0 -11.667 0 -17.501 c 0 -0.417 0 -0.833 0 -1.25 c 0 -4.583 0 -9.167 0 -13.75 c 0 -0.417 0 -0.834 0 -1.25 c 0 -5.418 0 -10.834 0 -16.251 c 0 -0.417 0 -0.833 0 -1.25 c 0 -9.168 0 -18.334 0 -27.501 c 0.417 0 0.833 0 1.25 0 c 0 -0.417 0 -0.834 0 -1.25 c 0 -9.584 0 -19.168 0 -28.752 c 0 -0.417 0 -0.833 0 -1.25 c 0 -5 0 -10 0 -15 c 0 -0.417 0 -0.833 0 -1.25 c 0 -5.068 0 -10.142 0 -15.219 c -0.428 0.146 -0.845 0.219 -1.25 0.219 c -0.381 0 -0.788 -0.042 -1.219 -0.125 c -0.01 0.876 -0.021 1.751 -0.031 2.625 c -1.85 3.392 -3.579 6.975 -5.188 10.75 c 0.958 2.021 1.438 3.646 1.438 4.875 c 0 2.917 -0.729 5.104 -2.188 6.563 c -0.727 0.716 -1.644 1.341 -2.75 1.875 c -0.022 6.712 -3.251 10.649 -9.688 11.813 c -0.208 0 -0.396 0.021 -0.562 0.063 c -0.042 0 -0.063 0.021 -0.063 0.062 c -2.166 0.292 -4.646 0.313 -7.438 0.063 c -12.042 -1.042 -21.876 -3.167 -29.501 -6.376 c -16.458 -6.875 -29.063 -17.188 -37.814 -30.938 c 1.583 -0.917 2.417 -2.584 2.5 -5 c 0 -0.363 0 -0.728 0 -1.094 v -0.031 c 0 -0.042 0 -0.083 0 -0.125 c 0.019 -1.79 0.436 -3.395 1.25 -4.813 c 0 -0.058 0 -0.121 0 -0.188 c 0.034 0.006 0.065 0.017 0.094 0.031 c 0.417 -0.682 0.928 -1.317 1.531 -1.906 c 0.191 -0.184 0.389 -0.361 0.594 -0.531 c -0.313 -0.041 -0.636 -0.072 -0.969 -0.094 c 0 -0.417 0 -0.833 0 -1.25 c 0 -0.417 0 -0.833 0 -1.25 c 5.417 -17.917 10.771 -35.855 16.063 -53.814 c 0.125 -0.375 0.188 -0.771 0.188 -1.188 c 0 -0.417 0 -0.833 0 -1.25 c 0 -3.75 0 -7.5 0 -11.25 c 0.417 0 0.833 0 1.25 0 c 0 -0.417 0 -0.833 0 -1.25 c 0 -3.75 0 -7.5 0 -11.25 c 0.417 0 0.833 0 1.25 0 c 0 -0.417 0 -0.833 0 -1.25 c 0 -3.75 0 -7.5 0 -11.25 c 5.292 -33.459 17.897 -59.606 37.814 -78.441 c 0.208 -0.208 0.521 -0.313 0.938 -0.313 c 0.034 0.087 0.065 0.17 0.094 0.25 c 0.19 -0.232 0.388 -0.461 0.593 -0.688 c 1.833 -2 4.021 -3.125 6.563 -3.375 c 0.26 -0.025 0.521 -0.036 0.781 -0.032 c 29.936 -13.545 58.531 -28.41 85.785 -44.595 c 0.599 -1.196 1.37 -2.196 2.313 -3 c 1.858 -1.562 4.941 -2.916 9.25 -4.063 c 1.417 -1.245 2.688 -2.641 3.813 -4.188 c 0.125 -0.208 0.396 -0.313 0.813 -0.313 c 0.002 1.163 0.034 2.298 0.094 3.407 c 0.288 -0.049 0.58 -0.102 0.875 -0.156 c 0.067 -0.636 0.161 -1.303 0.281 -2 c 4.833 -0.5 11.625 0.833 20.376 4 c 7.667 2.75 15.875 4.75 24.626 6 c 9.583 0 19.167 0 28.751 0 c 0.417 0 0.833 0 1.25 0 c 16 -2.333 29.335 -4.625 40.002 -6.875 l 0.125 1.875 c 0.012 0.15 0.021 0.296 0.031 0.438 c 0.547 -0.132 1.12 -0.236 1.719 -0.313 c 0.022 -0.081 0.043 -0.165 0.063 -0.25 c 0.625 -2.792 2.063 -3.167 4.313 -1.125 c 0.699 0.466 1.334 0.987 1.906 1.563 c 4.246 0.748 7.402 2.769 9.47 6.063 l 0.03 0.031 l 0.781 0.407 c 27.799 14.002 56.154 27.524 85.066 40.563 c 2.524 -0.098 5.379 2.902 8.563 9.001 c 17.44 16.484 29.754 38.402 36.939 65.753 c 9.376 35.709 18.876 69.586 28.501 101.629 c -0.416 0 -0.729 0.104 -0.938 0.313 C 521.125 240.138 520.719 240.523 520.306 240.901 Z" />
<path clip-rule="evenodd" fill="#514b4e" fill-rule="evenodd" d="M 451.322 68.108 c 4.092 16.832 3.635 33.101 -1.372 48.807 c 0 2.925 0 5.844 0 8.758 c 0 0.421 0 0.836 0 1.247 c -0.41 0 -0.826 0 -1.247 0 c 0 4.586 0 9.173 0 13.76 c 0 0.41 0 0.825 0 1.246 c 0 0.411 0 0.826 0 1.247 c -0.789 25.458 -6.206 46.293 -16.253 62.504 c -0.337 22.839 2.351 42.779 8.063 59.822 c 0.043 0.116 0.274 0.173 0.694 0.173 c 10.205 1.294 20.204 0.921 29.998 -1.12 c 0.421 -0.084 0.836 -0.126 1.246 -0.126 c 0 -0.411 0 -0.826 0 -1.247 c 6.124 -0.958 11.583 -2.541 16.381 -4.75 c 0.336 -0.168 0.71 -0.252 1.119 -0.252 c 0 -0.421 0 -0.836 0 -1.247 c 5.124 -1.546 9.769 -3.545 13.935 -5.997 c 0.294 -0.168 0.652 -0.252 1.073 -0.252 c 6.417 -2.756 11.935 -6.401 16.553 -10.936 c 0.211 -0.21 0.526 -0.315 0.947 -0.315 c -9.627 -32.043 -19.126 -65.923 -28.498 -101.639 c -7.965 -30.287 -22.22 -53.91 -42.765 -70.868 C 451.196 67.335 451.238 67.729 451.322 68.108 Z M 446.273 139.418 c -0.042 -0.41 -0.063 -0.826 -0.063 -1.247 c 0 -0.41 0.037 -0.826 0.11 -1.247 c 4.293 -24.753 5.086 -49.339 2.383 -73.755 c -29.004 -13.087 -57.444 -26.647 -85.322 -40.681 l -1.798 -0.947 c -2.252 3.671 -4.045 8.379 -5.382 14.123 c 0 0.421 -0.084 0.8 -0.252 1.136 c -1.705 3.619 -4.12 6.575 -7.243 8.868 c 0 0.421 0 0.836 0 1.247 c 0 0.42 -0.105 0.736 -0.315 0.947 c -7.007 6.743 -15.654 11.846 -25.942 15.307 c 0 0.42 -0.042 0.652 -0.127 0.694 c -6.837 1.789 -13.881 3.224 -21.129 4.308 c -0.411 0 -0.826 0.042 -1.247 0.126 c -10.288 2.335 -19.456 1.877 -27.504 -1.373 c 6.249 0 12.502 0 18.762 0 c 0.411 0 0.826 0 1.247 0 c 0 -0.421 0 -0.836 0 -1.247 c 10.078 0.073 18.847 -1.115 26.305 -3.566 c 0.379 -0.126 0.779 -0.19 1.199 -0.19 c 10.868 -3.292 19.721 -8.605 26.558 -15.938 c 0.211 -0.21 0.521 -0.316 0.932 -0.316 c 0 -0.42 0 -0.836 0 -1.247 c 3.083 -2.756 5.502 -6.133 7.259 -10.13 c 0.169 -0.336 0.252 -0.71 0.252 -1.121 c 0 -0.421 0.085 -0.794 0.253 -1.12 c 1.157 -2.546 1.488 -5.923 0.994 -10.131 c 0 -0.421 -0.063 -0.815 -0.189 -1.184 c -0.957 -2.714 -2.562 -4.818 -4.813 -6.312 c -2.252 -2.041 -3.688 -1.667 -4.308 1.12 c -6.376 28.751 -29.109 41.313 -68.202 37.683 c -5.375 -0.495 -10.083 -1.136 -14.123 -1.926 c -23.87 -4.586 -35.825 -18.546 -35.868 -41.879 c -0.421 0 -0.695 0.105 -0.82 0.315 c -2.662 3.661 -6.139 6.47 -10.431 8.426 c -0.042 7.543 1.52 13.46 4.687 17.752 c 0.21 0.252 0.315 0.589 0.315 1.01 c 3.251 3.409 6.292 7.054 9.121 10.936 c 0.168 0.2 0.457 0.299 0.868 0.299 c 0.421 0 0.757 0.105 1.01 0.316 c 4.534 3.755 9.2 7.4 13.997 10.936 c -0.42 0 -0.815 -0.058 -1.183 -0.173 c -6.007 -2.251 -11.031 -5.523 -15.07 -9.815 c -0.421 0 -0.731 -0.105 -0.931 -0.315 c -3.419 -3.251 -6.443 -6.896 -9.073 -10.936 c -0.832 -1.672 -1.62 -3.361 -2.367 -5.065 c -2.503 -5.46 -4.213 -9.605 -5.128 -12.435 c -0.421 0 -0.773 0.084 -1.057 0.253 c -28.214 16.748 -57.865 32.081 -88.952 45.999 c 0.42 9.584 1.236 18.751 2.446 27.504 c 0.042 0.41 0.063 0.826 0.063 1.247 c -0.421 0 -0.836 0 -1.247 0 c 0 2.493 0 4.992 0 7.496 c 0 0.421 0 0.836 0 1.246 h -0.631 c 0 -13.75 -1.872 -25.416 -5.617 -35 c -0.421 0 -0.736 0.105 -0.947 0.316 c -19.914 18.83 -32.517 44.978 -37.809 78.441 c 0 3.746 0 7.496 0 11.251 c 0 0.411 0 0.826 0 1.247 c -0.421 0 -0.836 0 -1.247 0 c 0 3.755 0 7.505 0 11.25 c 0 0.421 0 0.837 0 1.247 c -0.42 0 -0.842 0 -1.262 0 c 0 3.755 0 7.505 0 11.251 c 0 0.421 0 0.836 0 1.247 c 0 0.42 -0.063 0.821 -0.189 1.199 c -5.292 17.958 -10.646 35.894 -16.064 53.81 c 0 0.421 0 0.836 0 1.247 c 0 0.42 0 0.836 0 1.246 c 3.135 0.211 5.365 1.357 6.691 3.44 c 0.126 0.211 0.4 0.316 0.82 0.316 c 16.043 16.874 40.207 25.627 72.493 26.258 c 0.42 0 0.842 0 1.263 0 c 0.41 0 0.636 -0.063 0.678 -0.189 c 2.041 -5.292 4.313 -10.231 6.816 -14.817 c 0.337 -27.836 -3.434 -51.337 -11.314 -70.505 c -8.037 -19.494 -12.182 -42.658 -12.435 -69.495 c 0 -0.42 0 -0.841 0 -1.262 c 0 -2.914 0 -5.828 0 -8.742 c 0.41 0 0.826 0 1.247 0 c 1.462 38.956 8.984 72.062 22.565 99.319 c 4.587 9.163 10.399 17.311 17.437 24.443 c 0 0.41 -0.105 0.721 -0.316 0.931 c -0.21 0.21 -0.521 0.315 -0.931 0.315 c -4.292 -1.957 -7.795 -4.75 -10.51 -8.379 c -3.408 -4.586 -5.323 -3.045 -5.744 4.624 c 1.084 2.672 1.873 5.591 2.367 8.758 c 0.084 0.41 0.126 0.826 0.126 1.247 c 0 10.415 0 20.83 0 31.245 c 0 0.42 0 0.836 0 1.246 c 0 5.008 0 10.01 0 15.007 c 0 0.421 0 0.837 0 1.246 c 0 9.584 0 19.168 0 28.752 c 0 0.421 0 0.841 0 1.263 c -0.41 0 -0.826 0 -1.247 0 c 0 9.162 0 18.325 0 27.488 c 0 0.42 0 0.842 0 1.262 c 0 5.407 0 10.821 0 16.238 c 0 0.42 0 0.842 0 1.262 c 0 4.576 0 9.158 0 13.745 c 0 0.421 0 0.836 0 1.246 c 0 5.839 0 11.673 0 17.5 c 0 0.421 0 0.837 0 1.246 c -0.411 0 -0.826 0 -1.247 0 c 0 13.341 0 26.674 0 40.003 c 0 0.421 0 0.842 0 1.263 c 0 0.41 0 0.825 0 1.246 c 0.337 9.921 -0.494 18.668 -2.493 26.242 c -0.631 5.218 -0.279 9.41 1.058 12.576 c 0.126 0.368 0.189 0.764 0.189 1.185 c 15.412 13.329 35.41 22.038 59.995 26.131 c 0.421 0.074 0.836 0.11 1.247 0.11 c 7.174 1.168 14.675 1.982 22.502 2.446 c 0.421 0.042 0.841 0.063 1.262 0.063 c 3.125 0.211 6.039 0.585 8.742 1.121 c 0.421 0.084 0.836 0.127 1.247 0.127 c 2.924 0 5.843 0 8.758 0 c 0.41 0 0.825 0 1.246 0 c 18.336 0 36.673 0 55.01 0 c 0.41 0 0.825 0 1.246 0 c 16.001 -0.663 31.417 -1.895 46.251 -3.693 c 0.41 -0.042 0.825 -0.063 1.247 -0.063 c 5.123 -1.126 10.54 -1.936 16.253 -2.431 c 0.421 -0.041 0.836 -0.062 1.246 -0.062 c 0 -0.422 0 -0.837 0 -1.247 c 14.298 -1.957 27.236 -5.229 38.819 -9.815 c 0.378 -0.126 0.773 -0.189 1.183 -0.189 c 0 -0.421 0 -0.836 0 -1.247 c 5.123 -1.546 9.395 -3.944 12.814 -7.195 c 0.21 -0.199 0.525 -0.3 0.946 -0.3 c 2.199 -1.126 3.22 -2.75 3.062 -4.876 c -1.126 -15.591 -2.146 -33.969 -3.062 -55.135 c 0 -0.421 0 -0.837 0 -1.247 c 0 -11.256 0 -22.507 0 -33.753 c 0 -0.421 0 -0.836 0 -1.247 c 0 -7.922 0 -15.838 0 -23.749 c 0 -0.42 0.017 -0.842 0.047 -1.262 c 0.59 -9.373 0.153 -17.705 -1.31 -24.996 c 0 -0.42 0 -0.836 0 -1.246 c 0 -10.835 0 -21.672 0 -32.507 c 1.463 -6.87 1.899 -14.786 1.31 -23.749 c -0.03 -0.421 -0.047 -0.836 -0.047 -1.246 c 0 -0.421 0 -0.836 0 -1.247 c 0 -4.177 0 -8.347 0 -12.514 c 0.41 0 0.616 -0.021 0.616 -0.063 c 1.041 -8.911 0.835 -16.806 -0.616 -23.686 c 0 -0.411 0 -0.826 0 -1.247 c 0.158 -11.499 0.158 -21.082 0 -28.751 c 0 0.421 -0.105 0.773 -0.315 1.058 c -6.092 8.836 -13.486 14.317 -22.187 16.442 c 22.207 -15.296 35.1 -39.881 38.676 -73.756 c 0.042 -0.41 0.063 -0.825 0.063 -1.246 C 446.41 150.469 446.852 145.467 446.273 139.418 Z M 510.323 181.55 c 3.136 12.708 7.055 25.211 11.757 37.509 c 4.544 11.793 8.421 24.417 11.63 37.872 c -17.126 16.621 -40.46 27.015 -70 31.181 c -0.421 0.042 -0.841 0.063 -1.263 0.063 c 0 -0.409 -0.021 -0.614 -0.063 -0.614 c -4.123 -0.422 -8.268 -0.632 -12.434 -0.632 c 0 0.421 0 0.837 0 1.246 c -0.41 0 -0.742 -0.1 -0.995 -0.3 c -8.668 -7.132 -14.17 -17.447 -16.505 -30.944 c 0 6.669 0 13.334 0 19.993 c 0 0.421 0 0.843 0 1.263 c -0.41 0 -0.826 0 -1.247 0 c 0 3.745 0 7.496 0 11.251 c 0 0.41 0 0.826 0 1.246 c -0.421 0 -0.836 0 -1.246 0 c 0 8.753 0 17.501 0 26.243 c 0 0.421 0 0.841 0 1.263 c 0 4.166 0.204 8.311 0.615 12.434 c 0 0.042 0.21 0.063 0.631 0.063 c 0 4.576 0 9.157 0 13.745 c 0 0.42 0 0.835 0 1.246 c 0 27.92 0.211 55.84 0.631 83.76 h 0.616 c 0 0.421 0.021 0.836 0.063 1.247 c 2.756 23.88 6.485 46.798 11.188 68.753 c -18.126 16.874 -42.67 27.521 -73.629 31.938 c -30.666 4.376 -64.04 7.002 -100.124 7.875 c -58.796 1.419 -101.718 -12.268 -128.765 -41.061 c 0 -0.42 0 -0.836 0 -1.246 c 0 -5.008 0 -10.01 0 -15.007 c 4.839 -23.912 6.927 -50.58 6.265 -80.004 c 0 -0.411 0 -0.826 0 -1.246 c 1.452 -5.208 1.888 -11.458 1.31 -18.748 c -0.042 -0.42 -0.063 -0.841 -0.063 -1.262 c 0 -0.411 0 -0.826 0 -1.247 c 0 -4.996 0 -9.994 0 -14.991 c 0 -0.42 0 -0.842 0 -1.262 c 0 -4.576 0 -9.158 0 -13.745 c 0 -0.42 0 -0.836 0 -1.246 c 0.621 -19.799 0.205 -38.55 -1.247 -56.255 c 0 -0.422 0.058 -0.816 0.173 -1.185 c 1.757 -6.501 2.53 -14.023 2.319 -22.564 h -0.63 c 0.673 15.254 -4.535 24.422 -15.623 27.504 c -0.41 0 -0.826 0 -1.247 0 c -4.166 0 -8.332 0 -12.498 0 c -11.918 -1.42 -22.67 -4.108 -32.254 -8.063 c -9.331 -3.798 -17.79 -8.362 -25.374 -13.696 c -5.628 -3.956 -9.336 -9.621 -11.125 -16.996 c 11.33 -26.174 18.789 -55.803 22.376 -88.888 c 4.166 -38.703 15.938 -69.495 35.315 -92.376 c 5.46 -6.501 12.44 -11.604 20.94 -15.307 c 35.789 -15.749 69.163 -33.979 100.124 -54.693 c 12.456 5.46 26.621 9.189 42.496 11.188 c 0.42 0.042 0.841 0.063 1.262 0.063 c 4.787 1.462 10.599 1.672 17.437 0.631 c 0.042 0 0.063 -0.21 0.063 -0.631 c 20.325 -0.495 37.847 -3.767 52.563 -9.815 c 0.368 -0.126 0.763 -0.189 1.184 -0.189 c 35.873 19.967 72.293 39.634 109.26 59.001 c 6.491 3.419 11.699 8.358 15.622 14.817 C 487.454 109.82 500.951 143.426 510.323 181.55 Z M 490.078 259.677 c -4.703 2.714 -10.162 4.713 -16.379 5.996 c -0.41 0 -0.785 0.084 -1.121 0.252 c -8.879 3.756 -18.92 4.508 -30.123 2.257 c -0.422 0 -0.838 0 -1.248 0 c 0.41 2.914 2.494 4.182 6.249 3.803 c 0.411 -0.042 0.826 -0.063 1.247 -0.063 c 9.048 0.295 16.984 -0.473 23.812 -2.303 c 0.38 -0.126 0.774 -0.19 1.185 -0.19 c 0 -0.421 0 -0.836 0 -1.246 c 6.585 -1.336 12.46 -3.335 17.625 -5.997 c 0.338 -0.168 0.716 -0.252 1.137 -0.252 c 0 -0.42 0 -0.836 0 -1.246 c 3.166 -0.168 5.729 -0.9 7.686 -2.193 c 0.293 -0.21 0.646 -0.316 1.057 -0.316 c 0 -0.421 0 -0.836 0 -1.247 c 1.788 0.537 2.83 0.163 3.125 -1.12 c 0 -0.084 0.21 -0.126 0.631 -0.126 c 4.828 -1.841 9.078 -4.24 12.75 -7.196 c 0.252 -0.21 0.584 -0.315 0.994 -0.315 c 4.166 -2.041 5.665 -4.455 4.497 -7.243 c -0.084 -0.168 -0.331 -0.252 -0.741 -0.252 c 0 0.421 -0.104 0.731 -0.316 0.931 c -4.586 4.177 -9.898 7.617 -15.938 10.32 c 0 0.421 -0.083 0.674 -0.252 0.758 c -0.664 0.326 -1.41 0.489 -2.241 0.489 c 0 0.421 0 0.836 0 1.247 c -0.421 0 -0.82 0.063 -1.199 0.189 c -3.787 1.547 -7.559 3.151 -11.313 4.813 C 490.789 259.424 490.414 259.508 490.078 259.677 Z M 493.708 263.18 c -0.422 0 -0.795 0.084 -1.121 0.252 c -5.459 2.788 -11.335 5.202 -17.626 7.243 c -0.421 0 -0.82 0.063 -1.199 0.189 c -3.576 0.916 -7.348 1.689 -11.314 2.32 c -0.41 0 -0.826 0 -1.246 0 c -4.166 0 -8.332 0 -12.498 0 c -0.421 0 -0.836 0 -1.247 0 c -1.673 0 -3.34 0 -5.001 0 c 0 0.831 0.168 1.578 0.505 2.241 c 0.083 0.168 0.331 0.252 0.741 0.252 c 2.125 8.711 10.083 11.855 23.874 9.437 c 26.627 -4.576 46.336 -15.159 59.129 -31.75 l 0.757 -2.682 c -1.252 -5.46 -3.855 -5.981 -7.812 -1.563 c -0.21 0.21 -0.525 0.315 -0.946 0.315 c 0 0.411 -0.105 0.679 -0.315 0.805 c -4.997 3.418 -10.31 6.48 -15.938 9.184 c -0.41 0 -0.783 0.084 -1.12 0.252 C 498.91 260.887 496.368 262.055 493.708 263.18 Z M 344.95 13.794 c -10.668 2.251 -24.002 4.544 -40.003 6.879 c -0.42 0 -0.836 0 -1.246 0 c -9.584 0 -19.167 0 -28.751 0 c -8.753 -1.251 -16.964 -3.255 -24.633 -6.012 c -8.752 -3.167 -15.543 -4.498 -20.372 -3.992 c -0.958 5.543 -0.226 9.421 2.193 11.63 c 0.2 0.168 0.3 0.457 0.3 0.868 c 9.542 4.629 20.377 7.921 32.507 9.878 c 0.42 0.084 0.836 0.126 1.247 0.126 c 9.794 1.462 20.609 1.667 32.443 0.616 c 0.042 0 0.063 -0.206 0.063 -0.616 c 1.252 0 2.504 0 3.756 0 c 0.41 0 0.825 0 1.246 0 c 0 -0.421 0 -0.836 0 -1.247 c 7.249 0.168 13.519 -0.605 18.81 -2.32 c 0.379 -0.126 0.773 -0.189 1.184 -0.189 c 3.167 -0.579 6.106 -1.347 8.82 -2.304 c 0.368 -0.126 0.764 -0.189 1.185 -0.189 c 2.829 -0.916 5.391 -2.083 7.685 -3.503 c 0.295 -0.168 0.646 -0.252 1.057 -0.252 c 2.052 -1.294 2.931 -3.792 2.636 -7.496 L 344.95 13.794 Z M 403.762 503.383 c 0.378 -0.127 0.773 -0.189 1.184 -0.189 c 6.881 -3.124 13.593 -6.376 20.135 -9.753 c 0.326 -0.168 0.699 -0.252 1.121 -0.252 c 0 -0.421 0 -0.836 0 -1.247 c 3.545 -1.041 6.19 -3.04 7.938 -5.996 c 0.125 -0.168 0.399 -0.253 0.82 -0.253 h 0.615 c -0.41 -4.208 -2.283 -4.208 -5.617 0 c 0 0.411 -0.084 0.68 -0.253 0.805 c -4.503 2.716 -9.005 5.361 -13.508 7.938 c -0.41 0 -0.783 0.084 -1.12 0.253 c -10.71 5.038 -22.834 8.704 -36.373 10.998 c -0.42 0 -0.836 0.042 -1.246 0.126 c -5.755 1.252 -12.009 2.046 -18.763 2.383 c 0 0.41 -0.021 0.615 -0.063 0.615 c -15.116 1.915 -30.513 3.378 -46.188 4.388 c 0 -0.422 -0.083 -0.674 -0.251 -0.758 c -0.663 -0.337 -1.41 -0.505 -2.241 -0.505 c -0.421 0 -0.836 0 -1.246 0 c -17.927 0 -35.847 0 -53.763 0 c 0 0.421 0 0.841 0 1.263 c -0.41 0 -0.825 0 -1.247 0 c -3.334 0 -6.669 0 -10.004 0 c -0.411 0 -0.826 0.015 -1.247 0.047 c -3.997 0.21 -7.332 -0.227 -10.004 -1.31 c -0.411 0 -0.826 0 -1.247 0 c -9.374 -0.2 -17.705 -1.446 -24.995 -3.74 c -0.421 0 -0.836 -0.021 -1.247 -0.063 c -24.585 -3.713 -43.752 -12.86 -57.502 -27.44 c -0.421 0 -0.842 0 -1.262 0 c -0.579 2.251 -0.242 3.665 1.01 4.244 c 0.168 0.084 0.252 0.337 0.252 0.757 c 15.959 14.045 36.788 23.171 62.489 27.379 c 0.42 0.084 0.841 0.127 1.262 0.127 c 6.701 1.199 13.781 2.009 21.24 2.429 c 0.421 0.043 0.841 0.063 1.262 0.063 c 3.083 -0.578 5.266 -0.269 6.549 0.931 c 0.21 0.212 0.526 0.316 0.947 0.316 c 4.997 0 9.994 0 14.991 0 c 0.42 0 0.841 0 1.262 0 c 30.876 0.873 60.043 0.063 87.5 -2.43 c 0.421 -0.042 0.837 -0.063 1.246 -0.063 c 4.208 0.042 7.979 -0.337 11.315 -1.137 c 0.378 -0.073 0.772 -0.109 1.183 -0.109 c 0 -0.422 0 -0.842 0 -1.263 c 6.88 -0.2 13.155 -0.989 18.826 -2.367 c 0.368 -0.084 0.763 -0.127 1.183 -0.127 c 0 -0.42 0 -0.836 0 -1.246 C 387.74 507.237 396.093 505.634 403.762 503.383 Z M 404.945 504.44 c -0.41 0 -0.784 0.083 -1.12 0.252 c -6.249 2.83 -13.376 4.829 -21.382 5.997 c -0.41 0 -0.805 0.063 -1.185 0.188 c -6.08 1.746 -12.765 2.935 -20.056 3.566 c -0.42 0 -0.836 0.042 -1.246 0.126 c -4.219 0.705 -8.806 1.078 -13.761 1.12 c 0 0.421 -0.021 0.632 -0.063 0.632 c -7.795 0.915 -15.691 1.535 -23.686 1.861 c -0.422 0 -0.837 0 -1.247 0 c -5.007 0 -10.01 0 -15.007 0 c 0 0.422 0 0.842 0 1.263 c -0.41 0 -0.825 0 -1.247 0 c -15.001 0 -30.002 0 -45.004 0 c 0 -0.421 -0.084 -0.673 -0.253 -0.758 c -0.662 -0.336 -1.409 -0.505 -2.24 -0.505 c -0.421 0 -0.842 0 -1.262 0 c -4.997 0 -9.994 0 -14.991 0 c -0.421 0 -0.836 0 -1.247 0 c -0.421 0 -0.842 0 -1.262 0 c -0.411 0 -0.826 0.021 -1.247 0.063 c -4.786 0.59 -8.537 0.153 -11.25 -1.31 c -0.411 0 -0.826 0 -1.247 0 c -6.249 0 -11.667 -0.831 -16.253 -2.493 c -0.41 0 -0.826 -0.021 -1.247 -0.063 c -25.669 -3.882 -46.088 -13.029 -61.257 -27.44 c -0.411 0 -0.826 0 -1.247 0 c 0 4.165 0.211 8.31 0.631 12.434 c 0 0.042 0.205 0.063 0.616 0.063 c 21.05 20.209 51.884 30.629 92.502 31.261 c 0.42 0 0.841 0 1.262 0 c 5.207 1.451 11.456 1.888 18.747 1.31 c 0.421 -0.042 0.836 -0.063 1.247 -0.063 c 15.001 0 30.003 0 45.004 0 c 0.422 0 0.837 0 1.247 0 c 7.501 0 14.98 -0.211 22.439 -0.632 c 0.041 0 0.063 -0.205 0.063 -0.614 c 44.584 -1.253 80.73 -10.983 108.439 -29.193 c 0.212 -0.126 0.316 -0.399 0.316 -0.821 c 1.041 -2.703 1.083 -6.453 0.126 -11.251 c -0.084 -0.41 -0.126 -0.825 -0.126 -1.246 c -0.421 0 -0.772 0.085 -1.058 0.253 c -2.882 1.661 -5.864 3.245 -8.947 4.749 c 0 0.421 -0.1 0.695 -0.3 0.82 C 420.805 498.585 413.403 502.062 404.945 504.44 Z M 142.446 278.187 c 0.41 -0.42 0.741 -0.884 0.994 -1.388 c 0.168 -0.327 0.252 -0.7 0.252 -1.121 c -0.421 0 -0.836 0 -1.246 0 c -33.843 -0.337 -58.844 -9.505 -75.002 -27.504 c -0.421 0 -0.8 -0.079 -1.136 -0.237 c -1.789 -1.052 -3.913 -1.804 -6.375 -2.257 c 0 0.832 0 1.663 0 2.494 c 0 0.421 0 0.841 0 1.262 c 2.504 0.831 4.924 1.831 7.259 2.999 c 0.168 0.084 0.252 0.332 0.252 0.741 c -0.421 0 -0.841 0 -1.263 0 c 0 0.421 0 0.836 0 1.247 c -0.41 0 -0.678 -0.1 -0.805 -0.3 c -1.336 -2.083 -3.566 -3.23 -6.69 -3.44 c 0 0.41 0 0.825 0 1.246 c -0.084 2.419 -0.916 4.087 -2.494 5.002 c 8.743 13.75 21.345 24.064 37.809 30.944 c 7.627 3.209 17.458 5.334 29.493 6.376 c 12.466 1.115 18.362 -3.409 17.689 -13.571 c -0.41 0 -0.826 0 -1.247 0 c -24.08 0.337 -43.248 -4.244 -57.502 -13.744 c -0.411 0 -0.763 -0.084 -1.058 -0.252 c -2.335 -1.378 -4.481 -2.961 -6.438 -4.75 c 0.41 0 0.72 -0.105 0.931 -0.315 c 0.21 -0.211 0.315 -0.521 0.315 -0.931 c 2.546 1.199 4.734 2.761 6.564 4.686 c 0.21 0.2 0.521 0.3 0.931 0.3 c 11.961 6.007 25.716 10.157 41.265 12.45 c 0.41 0.043 0.826 0.063 1.247 0.063 c 3.535 1.452 8.117 1.889 13.745 1.311 c 0.421 -0.043 0.836 -0.063 1.247 -0.063 c 0.42 0 0.736 -0.105 0.947 -0.316 C 142.34 278.907 142.446 278.598 142.446 278.187 Z M 340.326 25.976 c -1.336 1.631 -3.545 2.362 -6.627 2.193 c 0 0.421 -0.085 0.695 -0.253 0.821 c -1.914 1.115 -4.328 1.673 -7.242 1.673 c 0 0.421 -0.043 0.652 -0.127 0.694 c -4.924 1.21 -9.883 2.23 -14.881 3.061 c -0.42 0 -0.814 0.042 -1.183 0.126 c -4.588 1.21 -10.025 1.583 -16.317 1.12 c -0.421 0 -0.836 0 -1.247 0 c -7.091 0 -14.176 0 -21.256 0 c -0.421 0 -0.836 -0.021 -1.246 -0.063 c -14.581 -0.789 -26.663 -4.098 -36.247 -9.926 c 0 0.411 0 0.826 0 1.247 c 16.243 18.746 41.969 25.206 77.181 19.377 c 14.128 -2.335 24.231 -9.21 30.313 -20.625 C 340.784 25.676 340.494 25.776 340.326 25.976 Z" />
</g></defs><use id="productImage" style="-webkit-tap-highlight-color: rgba(0, 0, 0, 0);" transform="matrix(1 0 0 1 0 0)" x="0" y="0" width="587" height="543" xmlns:xlink="http://www.w3.org/1999/xlink" xlink:href="#id901527769136734" laservice="true" preserveAspectRatio="none" /><use id="id201527769149044" style="cursor: pointer; -webkit-tap-highlight-color: rgba(0, 0, 0, 0);" clip-path="url(&quot;#3DB2EA69-1E14-4870-BAA1-ED8D024FCA27&quot;)" stroke-width="1" transform="matrix(0.366311 0 0 0.366311 218.738 106.759)" x="0" y="0" width="400" height="260" xmlns:xlink="http://www.w3.org/1999/xlink" xlink:href="#id491527769149037" preserveAspectRatio="none" la-source-id="22" la-source-url="../_LiveArtJS/gallery/animals/SVG/butterfly.svg" la-colors-list="#F67F00,#FFF6E3,#000000" /><text id="id161527769157125" letter-spacing="0px" font-family="Capture it" font-size="32px" font-style="normal" font-weight="normal" style="font: 32px Capture it; cursor: pointer; font-size-adjust: none; font-stretch: normal; text-anchor: middle; -webkit-tap-highlight-color: rgba(0, 0, 0, 0);" clip-path="url(&quot;#BBF5FB63-15B3-4378-B867-F5ECDF1DB93D&quot;)" fill="#000000" stroke="none" stroke-width="1" text-anchor="middle" transform="matrix(1 0 0 1 289.995 280)" x="0" y="0" xmlns:xml="http://www.w3.org/XML/1998/namespace" xml:space="preserve" fix-stroke-scale="true" la-text-effect-value="0" line-leading="1.2"><tspan style="white-space: pre; -webkit-tap-highlight-color: rgba(0, 0, 0, 0);" dy="10.955" xml:space="preserve">Some test</tspan></text><rect display="none" style="display: none; -webkit-tap-highlight-color: rgba(0, 0, 0, 0);" fill="none" stroke="#808080" stroke-width="1" transform="matrix(1 0 0 1 0 0)" x="170" y="75" width="240" height="410" rx="0" ry="0" r="0" laservice="true" /><g id="Layer"><polygon fill="#cc0000" points="470,0 532,0 587,55 587,117" /><g><path fill="#ffffff" d="M 504.561 13.174 l 5.748 -5.749 l -2.068 -2.068 l 1.326 -1.326 l 5.643 5.643 L 513.883 11 l -2.058 -2.058 l -5.748 5.749 L 504.561 13.174 Z" /><path fill="#ffffff" d="M 513.099 21.712 l 1.124 -3.903 l -1.103 -1.103 l -2.514 2.514 l -1.506 -1.506 l 7.074 -7.075 l 3.309 3.309 c 1.475 1.475 1.421 3.352 0.106 4.667 c -1.241 1.241 -2.716 1.124 -3.66 0.541 l -1.092 4.296 L 513.099 21.712 Z M 518.052 17.056 c 0.583 -0.583 0.487 -1.4 -0.106 -1.994 l -1.591 -1.591 l -1.909 1.909 l 1.591 1.591 C 516.63 17.564 517.447 17.66 518.052 17.056 Z" /><path fill="#ffffff" d="M 515.921 24.534 l 7.074 -7.075 l 1.506 1.506 l -7.074 7.075 L 515.921 24.534 Z" /><path fill="#ffffff" d="M 523.716 32.329 l 0.753 -1.644 l -3.033 -3.033 l -1.645 0.752 l -1.707 -1.707 l 9.8 -4.349 l 1.888 1.888 l -4.349 9.8 L 523.716 32.329 Z M 527.322 24.799 l -4.146 1.941 l 2.205 2.205 L 527.322 24.799 Z" /><path fill="#ffffff" d="M 526.018 34.631 l 7.074 -7.075 l 1.517 1.517 l -5.749 5.749 l 2.99 2.99 l -1.325 1.326 L 526.018 34.631 Z" /><path fill="#ffffff" d="M 536.624 45.237 l 4.179 -9.97 l 0.7 0.7 l -3.818 8.973 l 8.962 -3.829 l 0.7 0.7 l -9.97 4.179 L 536.624 45.237 Z" /><path fill="#ffffff" d="M 541.313 49.926 l 7.074 -7.075 l 4.486 4.486 l -0.552 0.552 l -3.882 -3.882 l -2.62 2.62 l 3.808 3.808 l -0.551 0.552 l -3.808 -3.808 l -2.801 2.8 l 3.882 3.882 l -0.551 0.552 L 541.313 49.926 Z" /><path fill="#ffffff" d="M 551.441 60.055 l 0.943 -4.911 l -1.56 -1.56 l -2.927 2.928 l -0.604 -0.604 l 7.074 -7.075 l 2.641 2.641 c 1.22 1.22 1.378 2.927 0.084 4.221 c -1.283 1.283 -2.896 1.093 -3.998 0.075 l -0.923 5.017 L 551.441 60.055 Z M 556.458 55.059 c 0.891 -0.891 0.891 -2.143 -0.053 -3.086 l -1.984 -1.984 l -3.044 3.044 l 1.984 1.984 C 554.305 55.96 555.567 55.95 556.458 55.059 Z" /><path fill="#ffffff" d="M 554.199 60.818 l 0.848 -0.064 c -0.064 0.976 0.169 2.227 1.188 3.246 c 1.442 1.442 2.663 1.05 3.268 0.446 c 2.078 -2.079 -3.245 -5.239 -0.774 -7.71 c 1.156 -1.156 2.927 -0.849 4.21 0.434 c 1.05 1.05 1.485 2.228 1.4 3.395 l -0.849 0.042 c 0.106 -1.124 -0.339 -2.122 -1.134 -2.917 c -0.944 -0.944 -2.196 -1.114 -2.96 -0.351 c -1.814 1.813 3.425 5.059 0.784 7.7 c -0.912 0.912 -2.608 1.401 -4.519 -0.509 C 554.495 63.363 554.092 62.005 554.199 60.818 Z" /><path fill="#ffffff" d="M 559.757 68.37 l 7.074 -7.075 l 0.604 0.604 l -7.074 7.075 L 559.757 68.37 Z" /><path fill="#ffffff" d="M 565.389 66.938 c 2.068 -2.068 5.017 -2.302 7.095 -0.224 c 2.068 2.068 1.847 5.029 -0.222 7.097 c -2.067 2.068 -5.028 2.29 -7.097 0.222 C 563.087 71.955 563.321 69.007 565.389 66.938 Z M 571.625 73.175 c 1.793 -1.792 2.005 -4.211 0.308 -5.908 c -1.707 -1.707 -4.115 -1.485 -5.908 0.308 c -1.781 1.782 -2.015 4.201 -0.308 5.908 C 567.414 75.179 569.844 74.957 571.625 73.175 Z" /><path fill="#ffffff" d="M 575.284 83.897 l 1.622 -10.533 l -6.077 6.078 l -0.604 -0.604 l 7.074 -7.075 l 0.615 0.615 l -1.559 10.426 l 5.992 -5.993 l 0.604 0.604 l -7.074 7.075 L 575.284 83.897 Z" /></g><g opacity="0.15"><path d="M 88.701 103.649 l 36.314 -36.314 l 7.785 7.785 l -29.509 29.509 l 15.353 15.353 l -6.806 6.806 L 88.701 103.649 Z" /><path d="M 117.068 132.016 l 36.314 -36.314 l 7.73 7.73 l -36.314 36.314 L 117.068 132.016 Z" /><path d="M 142.167 157.114 l 22.323 -50.306 l 8.765 8.765 l -17.802 37.949 l 37.947 -17.804 l 8.765 8.765 l -50.306 22.323 L 142.167 157.114 Z" /><path d="M 169.227 184.175 l 36.314 -36.314 l 25.697 25.697 l -6.806 6.806 l -17.967 -17.967 l -7.622 7.622 l 17.586 17.586 l -6.806 6.806 l -17.586 -17.586 l -8.275 8.275 l 17.967 17.967 l -6.806 6.806 L 169.227 184.175 Z" /><path d="M 226.068 241.016 l 3.865 -8.439 l -15.571 -15.571 l -8.439 3.865 l -8.765 -8.765 l 50.306 -22.323 l 9.692 9.692 l -22.322 50.306 L 226.068 241.016 Z M 244.58 202.36 l -21.288 9.963 l 11.324 11.324 L 244.58 202.36 Z" /><path d="M 258.736 273.684 l 5.771 -20.036 l -5.662 -5.661 l -12.903 12.903 l -7.731 -7.731 l 36.315 -36.314 l 16.986 16.987 c 7.567 7.567 7.296 17.205 0.545 23.956 c -6.37 6.37 -13.938 5.771 -18.783 2.776 l -5.609 22.05 L 258.736 273.684 Z M 284.162 249.782 c 2.994 -2.994 2.504 -7.187 -0.545 -10.235 l -8.166 -8.166 l -9.8 9.8 l 8.167 8.166 C 276.866 252.396 281.059 252.886 284.162 249.782 Z" /><path d="M 281.061 296.008 l 29.509 -29.509 l -10.617 -10.617 l 6.806 -6.806 l 28.965 28.965 l -6.806 6.806 l -10.563 -10.563 l -29.509 29.509 L 281.061 296.008 Z" /><path d="M 331.422 346.369 l 17.259 -17.259 l -23.03 -23.03 l -17.259 17.259 l -3.104 -3.104 l 36.314 -36.314 l 3.104 3.104 l -16.225 16.225 l 23.03 23.03 l 16.225 -16.225 l 3.104 3.104 l -36.314 36.314 L 331.422 346.369 Z" /><path d="M 352.819 367.767 l 33.483 -33.483 l -11.868 -11.868 l 2.831 -2.831 l 26.895 26.895 l -2.831 2.831 L 389.46 337.44 l -33.483 33.483 L 352.819 367.767 Z" /><path d="M 405.088 420.035 l 32.395 -32.395 l -45.625 19.164 l -1.197 -1.197 l 19.109 -45.68 l -32.395 32.395 l -3.103 -3.103 l 36.314 -36.314 l 4.628 4.628 l -17.858 42.575 l 42.521 -17.912 l 4.683 4.683 l -36.314 36.314 L 405.088 420.035 Z" /><path d="M 416.523 431.471 l 36.314 -36.314 l 3.157 3.157 l -33.483 33.483 l 17.586 17.586 l -2.831 2.831 L 416.523 431.471 Z" /><path d="M 448.429 452.813 h 4.137 c -0.979 5.662 0.328 10.672 5.01 15.354 c 5.281 5.281 12.903 5.28 17.857 0.326 c 5.499 -5.499 5.063 -12.685 -0.163 -17.911 c -3.321 -3.321 -7.241 -5.063 -12.358 -5.282 l -1.361 -3.32 l 19.056 -19.056 l 20.961 20.961 l -2.831 2.831 l -17.857 -17.857 l -14.21 14.21 c 3.538 0.054 8.274 1.524 12.031 5.281 c 6.098 6.098 7.568 15.625 0.001 23.192 c -7.241 7.241 -17.26 6.152 -23.956 -0.544 C 448.701 464.955 447.339 458.911 448.429 452.813 Z" /></g></g></svg>